<mxfile host="65bd71144e" modified="2020-12-16T02:31:13.462Z" agent="5.0 (Windows NT 10.0; Win64; x64) AppleWebKit/537.36 (KHTML, like Gecko) Code/1.51.1 Chrome/83.0.4103.122 Electron/9.3.3 Safari/537.36" etag="ydEqF8-1NS14VLp4J21u" version="13.10.0" type="embed">
    <diagram id="_fCsrPICg7QsrxN3RZDT" name="ページ1">
        <mxGraphModel dx="445" dy="779" grid="1" gridSize="10" guides="1" tooltips="1" connect="1" arrows="1" fold="1" page="1" pageScale="1" pageWidth="827" pageHeight="1169" math="0" shadow="0">
            <root>
                <mxCell id="0"/>
                <mxCell id="1" parent="0"/>
                <mxCell id="84" value="" style="rounded=1;whiteSpace=wrap;html=1;labelBackgroundColor=none;fontColor=#FFFFFF;align=left;fillColor=none;dashed=1;" parent="1" vertex="1">
                    <mxGeometry x="453" y="790" width="307" height="390" as="geometry"/>
                </mxCell>
                <mxCell id="62" value="" style="rounded=1;whiteSpace=wrap;html=1;labelBackgroundColor=none;fontColor=#FFFFFF;align=left;fillColor=none;dashed=1;" parent="1" vertex="1">
                    <mxGeometry x="502" y="70" width="224" height="600" as="geometry"/>
                </mxCell>
                <mxCell id="3" value="" style="rounded=1;whiteSpace=wrap;html=1;labelBackgroundColor=none;fontColor=#FFFFFF;align=left;fillColor=none;dashed=1;" parent="1" vertex="1">
                    <mxGeometry x="40" y="413" width="190" height="350" as="geometry"/>
                </mxCell>
                <mxCell id="5" value="" style="ellipse;html=1;shape=startState;fillColor=#000000;strokeColor=#ff0000;" parent="1" vertex="1">
                    <mxGeometry x="120" y="363" width="30" height="30" as="geometry"/>
                </mxCell>
                <mxCell id="6" value="" style="edgeStyle=orthogonalEdgeStyle;html=1;verticalAlign=bottom;endArrow=open;endSize=8;strokeColor=#ff0000;entryX=0.5;entryY=0;entryDx=0;entryDy=0;exitX=0.5;exitY=1;exitDx=0;exitDy=0;" parent="1" source="5" target="35" edge="1">
                    <mxGeometry relative="1" as="geometry">
                        <mxPoint x="135" y="463" as="targetPoint"/>
                        <mxPoint x="130" y="433" as="sourcePoint"/>
                    </mxGeometry>
                </mxCell>
                <mxCell id="7" value="温湿度の取得" style="rounded=1;whiteSpace=wrap;html=1;arcSize=40;fontColor=#000000;fillColor=#ffffc0;strokeColor=#ff0000;" parent="1" vertex="1">
                    <mxGeometry x="55" y="463" width="160" height="40" as="geometry"/>
                </mxCell>
                <mxCell id="8" value="" style="edgeStyle=orthogonalEdgeStyle;html=1;verticalAlign=bottom;endArrow=open;endSize=8;strokeColor=#ff0000;entryX=0.5;entryY=0;entryDx=0;entryDy=0;" parent="1" source="7" target="12" edge="1">
                    <mxGeometry relative="1" as="geometry">
                        <mxPoint x="130" y="563" as="targetPoint"/>
                    </mxGeometry>
                </mxCell>
                <mxCell id="9" value="温湿度、緯度経度、歩数を&lt;br&gt;AES256で暗号化" style="rounded=1;whiteSpace=wrap;html=1;arcSize=40;fontColor=#000000;fillColor=#ffffc0;strokeColor=#ff0000;" parent="1" vertex="1">
                    <mxGeometry x="55" y="643" width="160" height="40" as="geometry"/>
                </mxCell>
                <mxCell id="12" value="緯度経度の取得" style="rounded=1;whiteSpace=wrap;html=1;arcSize=40;fontColor=#000000;fillColor=#ffffc0;strokeColor=#ff0000;" parent="1" vertex="1">
                    <mxGeometry x="55" y="523" width="160" height="40" as="geometry"/>
                </mxCell>
                <mxCell id="14" value="MQTTで配信" style="rounded=1;whiteSpace=wrap;html=1;arcSize=40;fontColor=#000000;fillColor=#ffffc0;strokeColor=#ff0000;" parent="1" vertex="1">
                    <mxGeometry x="55" y="703" width="160" height="40" as="geometry"/>
                </mxCell>
                <mxCell id="16" value="歩数の取り出し" style="rounded=1;whiteSpace=wrap;html=1;arcSize=40;fontColor=#000000;fillColor=#ffffc0;strokeColor=#ff0000;" parent="1" vertex="1">
                    <mxGeometry x="55" y="583" width="160" height="40" as="geometry"/>
                </mxCell>
                <mxCell id="21" value="" style="ellipse;html=1;shape=endState;fillColor=#000000;strokeColor=#ff0000;labelBackgroundColor=none;fontColor=#FFFFFF;align=left;" parent="1" vertex="1">
                    <mxGeometry x="120" y="783" width="30" height="30" as="geometry"/>
                </mxCell>
                <mxCell id="23" value="" style="edgeStyle=orthogonalEdgeStyle;html=1;verticalAlign=bottom;endArrow=open;endSize=8;strokeColor=#ff0000;exitX=0.5;exitY=1;exitDx=0;exitDy=0;" parent="1" source="12" target="16" edge="1">
                    <mxGeometry relative="1" as="geometry">
                        <mxPoint x="140" y="533" as="targetPoint"/>
                        <mxPoint x="130" y="573" as="sourcePoint"/>
                    </mxGeometry>
                </mxCell>
                <mxCell id="24" value="" style="edgeStyle=orthogonalEdgeStyle;html=1;verticalAlign=bottom;endArrow=open;endSize=8;strokeColor=#ff0000;" parent="1" edge="1">
                    <mxGeometry relative="1" as="geometry">
                        <mxPoint x="130" y="643" as="targetPoint"/>
                        <mxPoint x="130" y="623" as="sourcePoint"/>
                    </mxGeometry>
                </mxCell>
                <mxCell id="25" value="" style="edgeStyle=orthogonalEdgeStyle;html=1;verticalAlign=bottom;endArrow=open;endSize=8;strokeColor=#ff0000;exitX=0.5;exitY=1;exitDx=0;exitDy=0;" parent="1" source="9" target="14" edge="1">
                    <mxGeometry relative="1" as="geometry">
                        <mxPoint x="160" y="603" as="targetPoint"/>
                        <mxPoint x="160" y="583" as="sourcePoint"/>
                    </mxGeometry>
                </mxCell>
                <mxCell id="29" value="" style="edgeStyle=orthogonalEdgeStyle;html=1;verticalAlign=bottom;endArrow=open;endSize=8;strokeColor=#ff0000;entryX=0.5;entryY=0;entryDx=0;entryDy=0;exitX=0.5;exitY=1;exitDx=0;exitDy=0;" parent="1" source="3" target="21" edge="1">
                    <mxGeometry relative="1" as="geometry">
                        <mxPoint x="200" y="653" as="targetPoint"/>
                        <mxPoint x="130" y="1223" as="sourcePoint"/>
                    </mxGeometry>
                </mxCell>
                <mxCell id="34" value="" style="line;strokeWidth=1;fillColor=none;align=left;verticalAlign=middle;spacingTop=-1;spacingLeft=3;spacingRight=3;rotatable=0;labelPosition=right;points=[];portConstraint=eastwest;dashed=1;labelBackgroundColor=none;fontColor=#FFFFFF;" parent="1" vertex="1">
                    <mxGeometry x="40" y="443" width="190" height="8" as="geometry"/>
                </mxCell>
                <mxCell id="35" value="&lt;div style=&quot;text-align: center&quot;&gt;&amp;lt;&amp;lt;loop&amp;gt;&amp;gt;&lt;/div&gt;&lt;div style=&quot;text-align: center&quot;&gt;送信間隔&lt;/div&gt;" style="text;whiteSpace=wrap;html=1;fontColor=#000000;" parent="1" vertex="1">
                    <mxGeometry x="105" y="413" width="60" height="30" as="geometry"/>
                </mxCell>
                <mxCell id="37" value="" style="html=1;verticalAlign=bottom;endArrow=open;endSize=8;strokeColor=#ff0000;entryX=0.5;entryY=0;entryDx=0;entryDy=0;exitX=0.5;exitY=1;exitDx=0;exitDy=0;" parent="1" target="45" edge="1" source="62">
                    <mxGeometry relative="1" as="geometry">
                        <mxPoint x="396" y="210" as="targetPoint"/>
                        <mxPoint x="740" y="718" as="sourcePoint"/>
                    </mxGeometry>
                </mxCell>
                <mxCell id="75" style="edgeStyle=orthogonalEdgeStyle;rounded=0;orthogonalLoop=1;jettySize=auto;html=1;exitX=1;exitY=0.5;exitDx=0;exitDy=0;strokeColor=#FF0000;fontColor=#000000;entryX=1;entryY=0.5;entryDx=0;entryDy=0;" parent="1" source="67" target="79" edge="1">
                    <mxGeometry relative="1" as="geometry">
                        <Array as="points">
                            <mxPoint x="712" y="200"/>
                            <mxPoint x="712" y="353"/>
                        </Array>
                    </mxGeometry>
                </mxCell>
                <mxCell id="43" value="" style="ellipse;html=1;shape=startState;fillColor=#000000;strokeColor=#ff0000;" parent="1" vertex="1">
                    <mxGeometry x="597" y="10" width="30" height="30" as="geometry"/>
                </mxCell>
                <mxCell id="44" value="" style="edgeStyle=orthogonalEdgeStyle;html=1;verticalAlign=bottom;endArrow=open;endSize=8;strokeColor=#ff0000;exitX=0.5;exitY=1;exitDx=0;exitDy=0;" parent="1" source="43" target="64" edge="1">
                    <mxGeometry relative="1" as="geometry">
                        <mxPoint x="396" y="82" as="targetPoint"/>
                        <mxPoint x="396" y="102" as="sourcePoint"/>
                    </mxGeometry>
                </mxCell>
                <mxCell id="45" value="" style="ellipse;html=1;shape=endState;fillColor=#000000;strokeColor=#ff0000;labelBackgroundColor=none;fontColor=#FFFFFF;align=left;" parent="1" vertex="1">
                    <mxGeometry x="599" y="700" width="30" height="30" as="geometry"/>
                </mxCell>
                <mxCell id="54" value="" style="ellipse;html=1;shape=startState;fillColor=#000000;strokeColor=#ff0000;" parent="1" vertex="1">
                    <mxGeometry x="591" y="743" width="30" height="30" as="geometry"/>
                </mxCell>
                <mxCell id="55" value="" style="html=1;verticalAlign=bottom;endArrow=open;endSize=8;strokeColor=#ff0000;exitX=0.5;exitY=1;exitDx=0;exitDy=0;entryX=0.5;entryY=0;entryDx=0;entryDy=0;" parent="1" source="54" target="84" edge="1">
                    <mxGeometry relative="1" as="geometry">
                        <mxPoint x="602" y="790" as="targetPoint"/>
                        <mxPoint x="557" y="800" as="sourcePoint"/>
                    </mxGeometry>
                </mxCell>
                <mxCell id="91" style="rounded=0;orthogonalLoop=1;jettySize=auto;html=1;strokeColor=#FF0000;fontColor=#000000;" parent="1" source="57" target="59" edge="1">
                    <mxGeometry relative="1" as="geometry"/>
                </mxCell>
                <mxCell id="57" value="&lt;font color=&quot;#000000&quot;&gt;ボタン押下　&lt;/font&gt;" style="html=1;outlineConnect=0;whiteSpace=wrap;fillColor=#ffff99;shape=mxgraph.archimate3.event;align=right;strokeColor=#FF0000;" parent="1" vertex="1">
                    <mxGeometry x="500" y="838" width="100" height="35" as="geometry"/>
                </mxCell>
                <mxCell id="58" value="" style="edgeStyle=orthogonalEdgeStyle;html=1;verticalAlign=bottom;endArrow=open;endSize=8;strokeColor=#ff0000;exitX=0.5;exitY=1;exitDx=0;exitDy=0;" parent="1" source="92" target="93" edge="1">
                    <mxGeometry relative="1" as="geometry">
                        <mxPoint x="688" y="1171" as="targetPoint"/>
                        <mxPoint x="688" y="1146" as="sourcePoint"/>
                    </mxGeometry>
                </mxCell>
                <mxCell id="59" value="一定時間&lt;br&gt;経過" style="rhombus;whiteSpace=wrap;html=1;fillColor=#ffffc0;strokeColor=#ff0000;align=center;fontColor=#000000;" parent="1" vertex="1">
                    <mxGeometry x="510" y="893" width="80" height="40" as="geometry"/>
                </mxCell>
                <mxCell id="60" value="no" style="edgeStyle=orthogonalEdgeStyle;html=1;align=left;verticalAlign=bottom;endArrow=open;endSize=8;strokeColor=#ff0000;entryX=0.5;entryY=0;entryDx=0;entryDy=0;" parent="1" source="59" target="167" edge="1">
                    <mxGeometry x="-1" relative="1" as="geometry">
                        <mxPoint x="828" y="1171" as="targetPoint"/>
                        <Array as="points">
                            <mxPoint x="693" y="913"/>
                        </Array>
                    </mxGeometry>
                </mxCell>
                <mxCell id="61" value="yes" style="edgeStyle=orthogonalEdgeStyle;html=1;align=left;verticalAlign=top;endArrow=open;endSize=8;strokeColor=#ff0000;entryX=0.5;entryY=0;entryDx=0;entryDy=0;" parent="1" source="59" target="92" edge="1">
                    <mxGeometry x="-1" y="13" relative="1" as="geometry">
                        <mxPoint x="688" y="1251" as="targetPoint"/>
                        <mxPoint x="-5" y="-10" as="offset"/>
                    </mxGeometry>
                </mxCell>
                <mxCell id="63" value="" style="line;strokeWidth=1;fillColor=none;align=left;verticalAlign=middle;spacingTop=-1;spacingLeft=3;spacingRight=3;rotatable=0;labelPosition=right;points=[];portConstraint=eastwest;dashed=1;labelBackgroundColor=none;fontColor=#FFFFFF;" parent="1" vertex="1">
                    <mxGeometry x="506" y="100" width="220" height="8" as="geometry"/>
                </mxCell>
                <mxCell id="64" value="&lt;div style=&quot;text-align: center&quot;&gt;&amp;lt;&amp;lt;loop&amp;gt;&amp;gt;&lt;/div&gt;&lt;div style=&quot;text-align: center&quot;&gt;随時&lt;/div&gt;" style="text;whiteSpace=wrap;html=1;labelBackgroundColor=none;fontColor=#000000;verticalAlign=middle;" parent="1" vertex="1">
                    <mxGeometry x="582" y="70" width="60" height="30" as="geometry"/>
                </mxCell>
                <mxCell id="70" style="edgeStyle=orthogonalEdgeStyle;rounded=0;orthogonalLoop=1;jettySize=auto;html=1;exitX=0.5;exitY=1;exitDx=0;exitDy=0;entryX=0.5;entryY=0;entryDx=0;entryDy=0;fontColor=#000000;strokeColor=#FF0000;" parent="1" source="66" target="67" edge="1">
                    <mxGeometry relative="1" as="geometry"/>
                </mxCell>
                <mxCell id="66" value="加速度と方向を取得" style="rounded=1;whiteSpace=wrap;html=1;arcSize=40;fontColor=#000000;fillColor=#ffffc0;strokeColor=#ff0000;" parent="1" vertex="1">
                    <mxGeometry x="532" y="120" width="160" height="40" as="geometry"/>
                </mxCell>
                <mxCell id="67" value="方向変化" style="rhombus;whiteSpace=wrap;html=1;fillColor=#ffffc0;strokeColor=#ff0000;fontColor=#000000;" parent="1" vertex="1">
                    <mxGeometry x="572" y="180" width="80" height="40" as="geometry"/>
                </mxCell>
                <mxCell id="69" value="yes" style="edgeStyle=orthogonalEdgeStyle;html=1;align=left;verticalAlign=top;endArrow=open;endSize=8;strokeColor=#ff0000;entryX=0.5;entryY=0;entryDx=0;entryDy=0;" parent="1" target="40" edge="1">
                    <mxGeometry x="-1" y="14" relative="1" as="geometry">
                        <mxPoint x="652" y="290" as="targetPoint"/>
                        <mxPoint x="612" y="220" as="sourcePoint"/>
                        <mxPoint x="-4" y="-10" as="offset"/>
                    </mxGeometry>
                </mxCell>
                <mxCell id="164" style="edgeStyle=none;rounded=0;orthogonalLoop=1;jettySize=auto;html=1;exitX=0.5;exitY=1;exitDx=0;exitDy=0;entryX=0.5;entryY=0;entryDx=0;entryDy=0;strokeColor=#FF0000;" edge="1" parent="1" source="79" target="158">
                    <mxGeometry relative="1" as="geometry"/>
                </mxCell>
                <mxCell id="79" value="" style="rhombus;whiteSpace=wrap;html=1;fillColor=#ffffc0;strokeColor=#ff0000;fontColor=#000000;" parent="1" vertex="1">
                    <mxGeometry x="572" y="333" width="80" height="40" as="geometry"/>
                </mxCell>
                <mxCell id="40" value="歩数を加算" style="rounded=1;whiteSpace=wrap;html=1;arcSize=40;fontColor=#000000;fillColor=#ffffc0;strokeColor=#ff0000;" parent="1" vertex="1">
                    <mxGeometry x="532" y="258" width="160" height="40" as="geometry"/>
                </mxCell>
                <mxCell id="82" value="no" style="edgeStyle=orthogonalEdgeStyle;html=1;align=left;verticalAlign=bottom;endArrow=open;endSize=8;strokeColor=#ff0000;exitX=0.5;exitY=1;exitDx=0;exitDy=0;" parent="1" source="40" edge="1">
                    <mxGeometry x="-1" y="88" relative="1" as="geometry">
                        <mxPoint x="612" y="330" as="targetPoint"/>
                        <mxPoint x="677" y="320" as="sourcePoint"/>
                        <mxPoint x="-48" y="-78" as="offset"/>
                    </mxGeometry>
                </mxCell>
                <mxCell id="85" value="&lt;div style=&quot;text-align: center&quot;&gt;&amp;lt;&amp;lt;loop&amp;gt;&amp;gt;&lt;/div&gt;&lt;div style=&quot;text-align: center&quot;&gt;随時&lt;/div&gt;" style="text;whiteSpace=wrap;html=1;labelBackgroundColor=none;fontColor=#000000;verticalAlign=middle;" parent="1" vertex="1">
                    <mxGeometry x="576.5" y="798" width="60" height="30" as="geometry"/>
                </mxCell>
                <mxCell id="86" value="" style="line;strokeWidth=1;fillColor=none;align=left;verticalAlign=middle;spacingTop=-1;spacingLeft=3;spacingRight=3;rotatable=0;labelPosition=right;points=[];portConstraint=eastwest;dashed=1;labelBackgroundColor=none;fontColor=#FFFFFF;" parent="1" vertex="1">
                    <mxGeometry x="457" y="820" width="323" height="8" as="geometry"/>
                </mxCell>
                <mxCell id="87" value="" style="html=1;verticalAlign=bottom;endArrow=open;endSize=8;strokeColor=#ff0000;entryX=0.5;entryY=0;entryDx=0;entryDy=0;exitX=0.5;exitY=1;exitDx=0;exitDy=0;" parent="1" source="84" target="88" edge="1">
                    <mxGeometry relative="1" as="geometry">
                        <mxPoint x="601.5" y="1200" as="targetPoint"/>
                        <mxPoint x="601.5" y="1180" as="sourcePoint"/>
                    </mxGeometry>
                </mxCell>
                <mxCell id="88" value="" style="ellipse;html=1;shape=endState;fillColor=#000000;strokeColor=#ff0000;labelBackgroundColor=none;fontColor=#FFFFFF;align=left;" parent="1" vertex="1">
                    <mxGeometry x="591.5" y="1200" width="30" height="30" as="geometry"/>
                </mxCell>
                <mxCell id="92" value="緯度経度の取得" style="rounded=1;whiteSpace=wrap;html=1;arcSize=40;fontColor=#000000;fillColor=#ffffc0;strokeColor=#ff0000;" parent="1" vertex="1">
                    <mxGeometry x="470" y="953" width="160" height="40" as="geometry"/>
                </mxCell>
                <mxCell id="95" style="edgeStyle=orthogonalEdgeStyle;rounded=0;orthogonalLoop=1;jettySize=auto;html=1;exitX=0.5;exitY=1;exitDx=0;exitDy=0;strokeColor=#FF0000;fontColor=#000000;" parent="1" source="93" edge="1">
                    <mxGeometry relative="1" as="geometry">
                        <mxPoint x="550" y="1070" as="targetPoint"/>
                    </mxGeometry>
                </mxCell>
                <mxCell id="93" value="緊急通知をMQTTで配信" style="rounded=1;whiteSpace=wrap;html=1;arcSize=40;fontColor=#000000;fillColor=#ffffc0;strokeColor=#ff0000;" parent="1" vertex="1">
                    <mxGeometry x="470" y="1013" width="160" height="40" as="geometry"/>
                </mxCell>
                <mxCell id="94" value="" style="rhombus;whiteSpace=wrap;html=1;fillColor=#ffffc0;strokeColor=#ff0000;fontColor=#000000;" parent="1" vertex="1">
                    <mxGeometry x="509.9999999999999" y="1130" width="80" height="40" as="geometry"/>
                </mxCell>
                <mxCell id="96" value="　topic=デバイス名/番号&lt;br&gt;　message=秒を切り捨てた緯度経度、&lt;br&gt;温湿度、緯度経度、歩数" style="shape=note2;boundedLbl=1;whiteSpace=wrap;html=1;size=25;verticalAlign=middle;align=left;labelBackgroundColor=none;fontColor=#000000;fillColor=none;" parent="1" vertex="1">
                    <mxGeometry x="247" y="703" width="233" height="47" as="geometry"/>
                </mxCell>
                <mxCell id="135" value="" style="rounded=1;whiteSpace=wrap;html=1;labelBackgroundColor=none;fontColor=#FFFFFF;align=left;fillColor=none;dashed=1;" parent="1" vertex="1">
                    <mxGeometry x="40" y="60" width="190" height="230" as="geometry"/>
                </mxCell>
                <mxCell id="136" value="" style="ellipse;html=1;shape=startState;fillColor=#000000;strokeColor=#ff0000;" parent="1" vertex="1">
                    <mxGeometry x="120" y="10" width="30" height="30" as="geometry"/>
                </mxCell>
                <mxCell id="137" value="" style="edgeStyle=orthogonalEdgeStyle;html=1;verticalAlign=bottom;endArrow=open;endSize=8;strokeColor=#ff0000;entryX=0.5;entryY=0;entryDx=0;entryDy=0;exitX=0.5;exitY=1;exitDx=0;exitDy=0;" parent="1" source="136" target="150" edge="1">
                    <mxGeometry relative="1" as="geometry">
                        <mxPoint x="135" y="110" as="targetPoint"/>
                        <mxPoint x="130" y="80" as="sourcePoint"/>
                    </mxGeometry>
                </mxCell>
                <mxCell id="138" value="暗号鍵を生成" style="rounded=1;whiteSpace=wrap;html=1;arcSize=40;fontColor=#000000;fillColor=#ffffc0;strokeColor=#ff0000;" parent="1" vertex="1">
                    <mxGeometry x="55" y="110" width="160" height="40" as="geometry"/>
                </mxCell>
                <mxCell id="139" value="" style="edgeStyle=orthogonalEdgeStyle;html=1;verticalAlign=bottom;endArrow=open;endSize=8;strokeColor=#ff0000;entryX=0.5;entryY=0;entryDx=0;entryDy=0;" parent="1" source="138" target="141" edge="1">
                    <mxGeometry relative="1" as="geometry">
                        <mxPoint x="130" y="210" as="targetPoint"/>
                    </mxGeometry>
                </mxCell>
                <mxCell id="141" value="区切りと暗号鍵を&lt;br&gt;AES256で暗号化" style="rounded=1;whiteSpace=wrap;html=1;arcSize=40;fontColor=#000000;fillColor=#ffffc0;strokeColor=#ff0000;" parent="1" vertex="1">
                    <mxGeometry x="55" y="170" width="160" height="40" as="geometry"/>
                </mxCell>
                <mxCell id="142" value="MQTTで配信" style="rounded=1;whiteSpace=wrap;html=1;arcSize=40;fontColor=#000000;fillColor=#ffffc0;strokeColor=#ff0000;" parent="1" vertex="1">
                    <mxGeometry x="55" y="230" width="160" height="40" as="geometry"/>
                </mxCell>
                <mxCell id="144" value="" style="ellipse;html=1;shape=endState;fillColor=#000000;strokeColor=#ff0000;labelBackgroundColor=none;fontColor=#FFFFFF;align=left;" parent="1" vertex="1">
                    <mxGeometry x="120" y="320" width="30" height="30" as="geometry"/>
                </mxCell>
                <mxCell id="145" value="" style="edgeStyle=orthogonalEdgeStyle;html=1;verticalAlign=bottom;endArrow=open;endSize=8;strokeColor=#ff0000;exitX=0.5;exitY=1;exitDx=0;exitDy=0;" parent="1" source="141" edge="1">
                    <mxGeometry relative="1" as="geometry">
                        <mxPoint x="135.0000000000001" y="229.99999999999977" as="targetPoint"/>
                        <mxPoint x="130" y="220" as="sourcePoint"/>
                    </mxGeometry>
                </mxCell>
                <mxCell id="148" value="" style="edgeStyle=orthogonalEdgeStyle;html=1;verticalAlign=bottom;endArrow=open;endSize=8;strokeColor=#ff0000;entryX=0.5;entryY=0;entryDx=0;entryDy=0;exitX=0.5;exitY=1;exitDx=0;exitDy=0;" parent="1" source="135" target="144" edge="1">
                    <mxGeometry relative="1" as="geometry">
                        <mxPoint x="200" y="300" as="targetPoint"/>
                        <mxPoint x="130" y="870" as="sourcePoint"/>
                    </mxGeometry>
                </mxCell>
                <mxCell id="149" value="" style="line;strokeWidth=1;fillColor=none;align=left;verticalAlign=middle;spacingTop=-1;spacingLeft=3;spacingRight=3;rotatable=0;labelPosition=right;points=[];portConstraint=eastwest;dashed=1;labelBackgroundColor=none;fontColor=#FFFFFF;" parent="1" vertex="1">
                    <mxGeometry x="40" y="90" width="190" height="8" as="geometry"/>
                </mxCell>
                <mxCell id="150" value="&lt;div style=&quot;text-align: center&quot;&gt;&amp;lt;&amp;lt;loop&amp;gt;&amp;gt;&lt;/div&gt;&lt;div style=&quot;text-align: center&quot;&gt;一日単位&lt;/div&gt;" style="text;whiteSpace=wrap;html=1;fontColor=#000000;" parent="1" vertex="1">
                    <mxGeometry x="105" y="60" width="60" height="30" as="geometry"/>
                </mxCell>
                <mxCell id="151" value="　topic=デバイス名/&quot;key&quot;&lt;br&gt;　message=日時、ルール、区切り、暗号鍵" style="shape=note2;boundedLbl=1;whiteSpace=wrap;html=1;size=25;verticalAlign=middle;align=left;labelBackgroundColor=none;fontColor=#000000;fillColor=none;" parent="1" vertex="1">
                    <mxGeometry x="247" y="230" width="243" height="50" as="geometry"/>
                </mxCell>
                <mxCell id="152" value="　暗号&lt;span style=&quot;text-align: center&quot;&gt;鍵&lt;/span&gt;は自動生成" style="shape=note2;boundedLbl=1;whiteSpace=wrap;html=1;size=25;verticalAlign=middle;align=left;labelBackgroundColor=none;fontColor=#000000;fillColor=none;" parent="1" vertex="1">
                    <mxGeometry x="247" y="110" width="223" height="40" as="geometry"/>
                </mxCell>
                <mxCell id="154" value="　緯度経度、歩数をルールに従って&lt;br&gt;　生成した暗号鍵で暗号化" style="shape=note2;boundedLbl=1;whiteSpace=wrap;html=1;size=25;verticalAlign=middle;align=left;labelBackgroundColor=none;fontColor=#000000;fillColor=none;" parent="1" vertex="1">
                    <mxGeometry x="247" y="643" width="233" height="40" as="geometry"/>
                </mxCell>
                <mxCell id="155" value="　タイムスタンプの一部を用いて&lt;br&gt;　暗号化" style="shape=note2;boundedLbl=1;whiteSpace=wrap;html=1;size=25;verticalAlign=middle;align=left;labelBackgroundColor=none;fontColor=#000000;fillColor=none;" parent="1" vertex="1">
                    <mxGeometry x="247" y="170" width="223" height="40" as="geometry"/>
                </mxCell>
                <mxCell id="156" style="edgeStyle=orthogonalEdgeStyle;rounded=0;orthogonalLoop=1;jettySize=auto;html=1;exitX=1;exitY=0.5;exitDx=0;exitDy=0;strokeColor=#FF0000;fontColor=#000000;entryX=1;entryY=0.5;entryDx=0;entryDy=0;" edge="1" source="159" target="161" parent="1">
                    <mxGeometry relative="1" as="geometry">
                        <Array as="points">
                            <mxPoint x="712" y="470"/>
                            <mxPoint x="712" y="623"/>
                        </Array>
                    </mxGeometry>
                </mxCell>
                <mxCell id="157" style="edgeStyle=orthogonalEdgeStyle;rounded=0;orthogonalLoop=1;jettySize=auto;html=1;exitX=0.5;exitY=1;exitDx=0;exitDy=0;entryX=0.5;entryY=0;entryDx=0;entryDy=0;fontColor=#000000;strokeColor=#FF0000;" edge="1" source="158" target="159" parent="1">
                    <mxGeometry relative="1" as="geometry"/>
                </mxCell>
                <mxCell id="158" value="湿度を取得" style="rounded=1;whiteSpace=wrap;html=1;arcSize=40;fontColor=#000000;fillColor=#ffffc0;strokeColor=#ff0000;" vertex="1" parent="1">
                    <mxGeometry x="532" y="390" width="160" height="40" as="geometry"/>
                </mxCell>
                <mxCell id="159" value="アラート湿度以下" style="rhombus;whiteSpace=wrap;html=1;fillColor=#ffffc0;strokeColor=#ff0000;fontColor=#000000;" vertex="1" parent="1">
                    <mxGeometry x="572" y="450" width="80" height="40" as="geometry"/>
                </mxCell>
                <mxCell id="160" value="yes" style="edgeStyle=orthogonalEdgeStyle;html=1;align=left;verticalAlign=top;endArrow=open;endSize=8;strokeColor=#ff0000;entryX=0.5;entryY=0;entryDx=0;entryDy=0;" edge="1" target="162" parent="1">
                    <mxGeometry x="-1" y="14" relative="1" as="geometry">
                        <mxPoint x="652" y="560" as="targetPoint"/>
                        <mxPoint x="612" y="490" as="sourcePoint"/>
                        <mxPoint x="-4" y="-10" as="offset"/>
                    </mxGeometry>
                </mxCell>
                <mxCell id="161" value="" style="rhombus;whiteSpace=wrap;html=1;fillColor=#ffffc0;strokeColor=#ff0000;fontColor=#000000;" vertex="1" parent="1">
                    <mxGeometry x="572" y="603" width="80" height="40" as="geometry"/>
                </mxCell>
                <mxCell id="162" value="LEDを赤色にする" style="rounded=1;whiteSpace=wrap;html=1;arcSize=40;fontColor=#000000;fillColor=#ffffc0;strokeColor=#ff0000;" vertex="1" parent="1">
                    <mxGeometry x="532" y="528" width="160" height="40" as="geometry"/>
                </mxCell>
                <mxCell id="163" value="no" style="edgeStyle=orthogonalEdgeStyle;html=1;align=left;verticalAlign=bottom;endArrow=open;endSize=8;strokeColor=#ff0000;exitX=0.5;exitY=1;exitDx=0;exitDy=0;" edge="1" source="162" parent="1">
                    <mxGeometry x="-1" y="88" relative="1" as="geometry">
                        <mxPoint x="612" y="600" as="targetPoint"/>
                        <mxPoint x="677" y="590" as="sourcePoint"/>
                        <mxPoint x="-48" y="-78" as="offset"/>
                    </mxGeometry>
                </mxCell>
                <mxCell id="166" style="edgeStyle=none;rounded=0;orthogonalLoop=1;jettySize=auto;html=1;exitX=0.5;exitY=1;exitDx=0;exitDy=0;entryX=0.5;entryY=0;entryDx=0;entryDy=0;strokeColor=#FF0000;" edge="1" parent="1" source="165" target="94">
                    <mxGeometry relative="1" as="geometry"/>
                </mxCell>
                <mxCell id="165" value="ブザーON" style="rounded=1;whiteSpace=wrap;html=1;arcSize=40;fontColor=#000000;fillColor=#ffffc0;strokeColor=#ff0000;" vertex="1" parent="1">
                    <mxGeometry x="470" y="1070" width="160" height="40" as="geometry"/>
                </mxCell>
                <mxCell id="167" value="ブザーOFF" style="rounded=1;whiteSpace=wrap;html=1;arcSize=40;fontColor=#000000;fillColor=#ffffc0;strokeColor=#ff0000;" vertex="1" parent="1">
                    <mxGeometry x="638" y="1070" width="110" height="40" as="geometry"/>
                </mxCell>
                <mxCell id="168" value="" style="edgeStyle=orthogonalEdgeStyle;html=1;align=left;verticalAlign=bottom;endArrow=open;endSize=8;strokeColor=#ff0000;entryX=1;entryY=0.5;entryDx=0;entryDy=0;exitX=0.5;exitY=1;exitDx=0;exitDy=0;" edge="1" parent="1" source="167" target="94">
                    <mxGeometry x="-1" relative="1" as="geometry">
                        <mxPoint x="718" y="1070" as="targetPoint"/>
                        <mxPoint x="590" y="913" as="sourcePoint"/>
                    </mxGeometry>
                </mxCell>
            </root>
        </mxGraphModel>
    </diagram>
</mxfile>